<svg id="Camada_1" data-name="Camada 1" xmlns="http://www.w3.org/2000/svg" viewBox="0 0 184.04 135.63"><defs><style>.cls-1,.cls-3{fill:none;stroke:#798a60;stroke-miterlimit:10;}.cls-1{stroke-width:5px;}.cls-2{fill:#798a60;}.cls-3{stroke-width:3px;}</style></defs><path class="cls-1" d="M119.55,2.56H17.41A14.22,14.22,0,0,0,3.19,16.78V96a14.22,14.22,0,0,0,14.22,14.22H147.27A14.22,14.22,0,0,0,161.5,96V76.65"/><line class="cls-1" x1="15.57" y1="89.66" x2="146.87" y2="89.66"/><rect class="cls-2" x="48.03" y="130.48" width="68.63" height="5.14" rx="2.57"/><line class="cls-1" x1="70.53" y1="110.23" x2="70.53" y2="133.06"/><line class="cls-1" x1="93.03" y1="110.23" x2="93.03" y2="133.06"/><circle class="cls-1" cx="148.58" cy="28.25" r="23.93"/><path class="cls-3" d="M129.83,40.38,115.72,62.79c-.42.67.08,1.37.73,1l11.15-5.77a1.1,1.1,0,0,1,1.68,1L129,71.78c0,.73.84.87,1.26.2l14.13-22.44"/><path class="cls-3" d="M154.44,49l11.38,23.91c.34.71,1.21.67,1.27-.06l1.09-12.51A1.1,1.1,0,0,1,170,59.5l10.56,7c.61.41,1.17-.23.83-1L170,41.62"/></svg>