<svg id="Camada_1" data-name="Camada 1" xmlns="http://www.w3.org/2000/svg" viewBox="0 0 181.77 155.7"><defs><style>.cls-1{fill:none;stroke:#798a60;stroke-miterlimit:10;stroke-width:5px;}.cls-2{fill:#798a60;}</style></defs><path class="cls-1" d="M83.6,125.9h-66c-7.58,0-13.72-7.29-13.72-16.28V18.92c0-9,6.14-16.29,13.72-16.29H142.88c7.57,0,13.72,7.29,13.72,16.29V42.24"/><path class="cls-1" d="M65.31,2.63v39a.55.55,0,0,0,.9.42L80.75,30.19a.52.52,0,0,1,.63,0l14.23,12a.55.55,0,0,0,.88-.44l.32-40.18"/><ellipse class="cls-1" cx="137.5" cy="92.55" rx="41.71" ry="40.58"/><line class="cls-1" x1="116.74" y1="77.04" x2="116.74" y2="109.35"/><line class="cls-1" x1="131.04" y1="77.04" x2="131.04" y2="109.35"/><line class="cls-1" x1="145.19" y1="77.04" x2="145.19" y2="109.35"/><line class="cls-1" x1="159.17" y1="77.04" x2="159.17" y2="109.35"/><rect class="cls-2" x="82.06" y="136.46" width="40.48" height="6.35" rx="2.57" transform="translate(-70.79 138.31) rotate(-53.33)"/></svg>